<svg width="352" height="512" xmlns="http://www.w3.org/2000/svg" xmlns:xlink="http://www.w3.org/1999/xlink" overflow="hidden"><defs><clipPath id="clip0"><rect x="609" y="63" width="352" height="512"/></clipPath></defs><g clip-path="url(#clip0)" transform="translate(-609 -63)"><path d="M851.72 319 951.79 218.93C964.07 206.65 964.07 186.74 951.79 174.45L929.55 152.21C917.27 139.93 897.36 139.93 885.07 152.21L785 252.28 684.93 152.21C672.65 139.93 652.74 139.93 640.45 152.21L618.21 174.45C605.93 186.73 605.93 206.64 618.21 218.93L718.28 319 618.21 419.07C605.93 431.35 605.93 451.26 618.21 463.55L640.45 485.79C652.73 498.07 672.65 498.07 684.93 485.79L785 385.72 885.07 485.79C897.35 498.07 917.27 498.07 929.55 485.79L951.79 463.55C964.07 451.27 964.07 431.36 951.79 419.07L851.72 319Z" fill="#FFFFFF"/></g></svg>